# xmcd CD database file
#
# Track frame offsets:
#	150
#	16468
#	34500
#	51752
#	58890
#	70210
#	92252
#	110692
#	124373
#	146173
#	165877
#	177387
#	190040
#	206533
#	226233
#	240362
#	255408
#	277085
#	289339
#	309905
#	321803
#
# Disc length: 4529 seconds
#
# Revision: 1
# Processed by: cddbd v1.5.1PL2 Copyright (c) Steve Scherf et al.
# Submitted via: CDex 1.51
#
DISCID=2811af15
DTITLE=Various Artist - National Resophonic-Artists In Resonance
DYEAR=2002
DGENRE=Blues
TTITLE0=Diamond Jim Green - Blind Man
TTITLE1=John-Alex Mason - Butterfly
TTITLE2=Hull and Larson - Angel Band
TTITLE3=Junior Barber - Summer Rain
TTITLE4=Steve Carter - Ragtime #9
TTITLE5=Cool John Ferguson - A Song for Brenda
TTITLE6=Corey Harris - Sweet Black Angel
TTITLE7=Catfish Keith - Freckles
TTITLE8=Original Snakeboy - Spooky Lou
TTITLE9=Robert B. Jones - New Aberdeen Blues
TTITLE10=Kenny Sultan - Autopilot
TTITLE11=Steve James - Fisherman's Reel
TTITLE12=Steve Dawson - Dog Dreams of Tulsa
TTITLE13=Joe Price - I Don't Know Why
TTITLE14=Mary Flower - Hobo's Hop
TTITLE15=Paul Rishell - Black Horse Blues
TTITLE16=Doug MacLeod - Big City Woman
TTITLE17=Papa George - Broken Mirror
TTITLE18=Bob Brozman - Wai'alae Waltz
TTITLE19=Dave MacKenzie - Turn Your Money Green
TTITLE20=Mojo Stu - Eldorado
EXTD=YEAR: 2002
EXTT0=
EXTT1=
EXTT2=
EXTT3=
EXTT4=
EXTT5=
EXTT6=
EXTT7=
EXTT8=
EXTT9=
EXTT10=
EXTT11=
EXTT12=
EXTT13=
EXTT14=
EXTT15=
EXTT16=
EXTT17=
EXTT18=
EXTT19=
EXTT20=
PLAYORDER=
